# Blender v2.77 (sub 0) OBJ File: ''
# www.blender.org
mtllib appeltjeOnderkant.mtl
o Apple.001
v 0.230452 0.725229 -0.557084
v 0.198725 0.659171 -0.581531
v 0.193205 0.707660 -0.565379
v 0.538717 0.784592 -0.221074
v 0.559608 0.760330 -0.209856
v 0.551723 0.659171 -0.270685
v 0.513319 0.780694 -0.251843
v 0.582608 0.766511 -0.090788
v 0.585426 0.760330 -0.095934
v 0.579848 0.768323 -0.101077
v 0.536217 0.341556 0.183239
v 0.454628 0.170608 0.206646
v 0.391880 0.031137 0.133410
v 0.561787 0.341556 0.074166
v -0.223936 -0.084601 0.117042
v -0.135981 -0.073880 0.050994
v -0.106115 -0.073880 0.099150
v -0.400021 0.031137 0.106536
v -0.324478 -0.054799 -0.011011
v -0.245678 -0.084601 0.059067
v -0.295567 -0.054799 -0.134346
v -0.483017 0.170841 -0.113234
v -0.131954 -0.084601 0.215487
v -0.237228 -0.054799 0.221655
v -0.145144 -0.073880 -0.004926
v -0.206690 0.163660 0.449824
v -0.207525 0.031137 0.358189
v -0.133410 0.031137 0.391880
v -0.203536 0.164685 0.451963
v -0.388094 0.341556 -0.409235
v -0.344799 0.341556 -0.449688
v -0.340942 0.170608 -0.364895
v -0.412891 0.316448 -0.373083
v -0.358189 0.031137 -0.207525
v -0.454628 0.170608 -0.206646
v -0.472654 0.233049 -0.214840
v -0.469746 0.242377 -0.238914
v 0.508732 0.341556 -0.249592
v 0.569286 0.513107 -0.213486
v 0.547405 0.341556 -0.146465
v 0.413101 0.031137 -0.026711
v 0.565521 0.341556 -0.035910
v 0.054596 -0.047799 0.333164
v 0.059067 -0.084601 0.245678
v 0.106536 0.031137 0.400021
v -0.335549 0.132438 0.329276
v -0.196978 -0.047799 0.274189
v -0.278414 0.144731 0.387544
v 0.000000 -0.021950 0.000000
v -0.371433 0.031137 0.182766
v -0.386192 0.130145 0.250896
v -0.328804 0.031137 0.251507
v -0.367497 0.130497 0.281368
v -0.060095 -0.073880 0.132211
v -0.075586 -0.084601 0.241108
v -0.004926 -0.073880 0.145144
v 0.175350 0.170608 0.467590
v 0.182766 0.031137 0.371433
v 0.221655 -0.054799 0.237228
v 0.215487 -0.084601 0.131954
v 0.274189 -0.047799 0.196978
v -0.016937 0.170608 0.499104
v 0.080228 0.170840 0.489582
v 0.099150 -0.073880 0.106115
v 0.117042 -0.084601 0.223936
v 0.145144 -0.073880 0.004926
v 0.324478 -0.054799 0.011011
v 0.241108 -0.084601 0.075586
v -0.011011 -0.054799 0.324478
v 0.050994 -0.073880 0.135981
v 0.358189 0.031137 0.207525
v 0.132211 -0.073880 0.060095
v 0.245678 -0.084601 -0.059067
v 0.251507 0.031137 0.328804
v 0.249592 0.341556 0.508732
v -0.054656 0.031137 0.410339
v 0.449688 0.341556 -0.344799
v 0.421612 0.170841 -0.261476
v 0.364895 0.170608 -0.340942
v 0.283506 0.341556 -0.490639
v 0.207525 0.031137 -0.358189
v 0.183239 0.341556 -0.536217
v 0.135981 -0.073880 -0.050994
v 0.223936 -0.084601 -0.117042
v 0.340942 0.170608 0.364895
v 0.402916 0.170840 0.289457
v 0.011011 -0.054799 -0.324478
v 0.016937 0.170608 -0.499103
v 0.113235 0.170841 -0.483017
v 0.425278 0.341556 0.374493
v 0.490128 0.513107 0.352112
v 0.106115 -0.073880 -0.099150
v 0.400021 0.031137 -0.106536
v -0.146465 0.341556 -0.547405
v -0.106536 0.031137 -0.400021
v -0.249592 0.341556 -0.508732
v 0.587566 0.513107 0.137743
v -0.059067 -0.084601 -0.245678
v -0.117042 -0.084601 -0.223936
v -0.221655 -0.054799 -0.237228
v -0.261477 0.170841 -0.421612
v -0.489784 0.189424 -0.108205
v -0.488026 0.195162 -0.123065
v 0.004926 -0.073880 -0.145144
v 0.075586 -0.084601 -0.241108
v 0.060095 -0.073880 -0.132211
v 0.131954 -0.084601 -0.215487
v 0.237228 -0.054799 -0.221655
v 0.344799 0.341556 0.449688
v 0.275370 0.406132 0.510290
v 0.329028 0.442791 0.486973
v -0.099150 -0.073880 -0.106115
v 0.273220 0.031137 -0.310995
v 0.374493 0.341556 -0.425278
v 0.561641 0.660544 0.203087
v 0.580326 0.692271 0.136047
v 0.595551 0.513107 -0.097593
v 0.487690 0.659171 -0.373939
v -0.050994 -0.073880 -0.135981
v 0.251589 0.513107 -0.553505
v 0.352112 0.513107 -0.490127
v 0.607651 0.513107 0.020621
v -0.026711 0.031137 -0.413101
v -0.035910 0.341556 -0.565521
v -0.132211 -0.073880 -0.060095
v -0.215487 -0.084601 -0.131954
v 0.074166 0.341556 -0.561787
v -0.310995 0.031137 -0.273220
v 0.444256 0.513107 -0.415092
v 0.080434 0.659171 -0.609264
v -0.447020 0.128148 0.154401
v -0.436925 0.126130 0.177715
v -0.097593 0.513107 -0.595550
v 0.020621 0.513107 -0.607651
v 0.079850 0.660153 -0.609148
v 0.080380 0.660346 -0.608854
v -0.067738 0.575728 -0.595997
v -0.097286 0.558925 -0.593674
v 0.343938 0.762633 -0.481704
v 0.346123 0.760330 -0.481792
v 0.335787 0.760330 -0.488309
v 0.552162 0.781930 -0.190102
v 0.436703 0.760330 -0.408035
v 0.597183 0.741568 0.011326
v 0.589027 0.760330 -0.060742
v 0.553505 0.513107 0.251589
v 0.537984 0.619039 0.292114
v 0.548727 0.638617 0.249417
v 0.356103 0.464758 0.464429
v 0.052751 0.276682 0.536664
v 0.086661 0.297626 0.528836
v -0.274171 0.144775 0.394571
v -0.158197 0.185551 0.463678
v -0.414985 0.129604 0.203964
v 0.480345 0.562529 0.370393
v 0.513497 0.594423 0.327257
v -0.468699 0.138265 0.086362
v -0.414726 0.312895 -0.365142
v -0.220347 0.480507 -0.557779
v -0.256770 0.449640 -0.523362
v 0.346939 0.763394 -0.479000
v 0.417864 0.779702 -0.409927
v 0.437407 0.782685 -0.386198
v -0.241108 -0.084601 -0.075586
v -0.356945 0.371198 -0.448749
v -0.342720 0.131456 0.320222
v 0.020461 0.625885 -0.602937
v 0.598199 0.739232 0.020300
v 0.170485 0.698132 -0.574134
v -0.485398 0.170841 -0.043056
v 0.009000 0.254507 0.531701
v 0.258318 0.734365 -0.538426
v 0.247821 0.730847 -0.545216
v 0.454077 0.779502 -0.348164
v -0.205091 0.491618 -0.566545
v -0.099422 0.209223 0.489355
v -0.037616 0.232379 0.521754
v -0.455048 0.258143 -0.263089
v -0.353778 0.127645 0.313393
v 0.473644 0.779896 -0.316351
v 0.139766 0.327346 0.526149
v 0.196319 0.358925 0.523506
v -0.447947 0.267786 -0.281062
v 0.240839 0.383146 0.523413
v -0.348114 0.377689 -0.454011
v -0.172647 0.513107 -0.578541
v -0.066678 0.222412 0.503659
v -0.113831 0.548866 -0.590351
v -0.469490 0.143383 0.069125
v 0.447397 0.537038 0.393971
v 0.399775 0.499334 0.430725
v 0.596287 0.734208 0.032682
v -0.333722 0.389026 -0.464938
vt 0.7242 0.5931
vt 0.7344 0.5583
vt 0.7344 0.5853
vt 0.5990 0.6261
vt 0.5938 0.6116
vt 0.6094 0.5583
vt 0.6094 0.6259
vt 0.5612 0.6159
vt 0.5625 0.6123
vt 0.5642 0.6170
vt 0.4844 0.3942
vt 0.4688 0.3028
vt 0.4844 0.2218
vt 0.5156 0.3942
vt 0.1212 0.1213
vt 0.1423 0.0690
vt 0.1811 0.0693
vt 0.0781 0.2218
vt 0.0315 0.1592
vt 0.0861 0.1213
vt 0.9715 0.1602
vt 0.0000 0.2999
vt 0.2015 0.1213
vt 0.1570 0.1602
vt 1.1269 0.0498
vt 0.2180 0.2988
vt 0.2031 0.2218
vt 0.2344 0.2218
vt 0.2195 0.2994
vt 0.9074 0.3942
vt 0.8906 0.3942
vt 0.9062 0.3028
vt 0.9196 0.3808
vt 0.9531 0.2218
vt 0.9688 0.3028
vt 0.9688 0.3357
vt 0.9622 0.3412
vt 0.6094 0.3942
vt 0.5938 0.4833
vt 0.5781 0.3942
vt 0.5469 0.2218
vt 0.5469 0.3942
vt 0.3121 0.1671
vt 0.3169 0.1213
vt 0.3281 0.2218
vt 0.1617 0.2791
vt 0.1877 0.1671
vt 0.1875 0.2860
vt 0.2226 0.0000
vt 0.1094 0.2218
vt 0.1306 0.2768
vt 0.1406 0.2218
vt 0.1406 0.2770
vt 0.2202 0.0693
vt 0.2366 0.1213
vt 0.2593 0.0693
vt 0.3438 0.3028
vt 0.3594 0.2218
vt 0.4043 0.1602
vt 0.4323 0.1213
vt 0.4365 0.1671
vt 0.2812 0.3028
vt 0.3125 0.3021
vt 0.3376 0.0693
vt 0.3520 0.1213
vt 0.4158 0.0693
vt 0.5279 0.1602
vt 0.4674 0.1213
vt 0.2806 0.1602
vt 0.2984 0.0693
vt 0.4531 0.2218
vt 0.3767 0.0693
vt 0.5477 0.1213
vt 0.3906 0.2218
vt 0.3594 0.3942
vt 0.2656 0.2218
vt 0.6406 0.3942
vt 0.6250 0.3021
vt 0.6562 0.3028
vt 0.7031 0.3942
vt 0.7031 0.2218
vt 0.7344 0.3942
vt 0.4549 0.0693
vt 0.5828 0.1213
vt 0.4062 0.3028
vt 0.4375 0.3021
vt 0.7860 0.1602
vt 0.7812 0.3028
vt 0.7500 0.3021
vt 0.4219 0.3942
vt 0.4375 0.4832
vt 0.4931 0.0690
vt 0.5781 0.2218
vt 0.8281 0.3942
vt 0.8281 0.2218
vt 0.8594 0.3942
vt 0.5000 0.4832
vt 0.8553 0.1213
vt 0.8904 0.1213
vt 0.9096 0.1602
vt 0.8750 0.3021
vt 0.9474 0.3099
vt 0.9978 0.3129
vt 1.0000 0.2999
vt 0.9473 0.0690
vt 0.7715 0.1200
vt 1.2226 0.0000
vt 0.4707 0.0498
vt 0.6665 0.1200
vt 0.6516 0.1602
vt 0.3906 0.3942
vt 0.3653 0.4277
vt 0.3814 0.4467
vt 1.0246 0.0693
vt 0.6719 0.2218
vt 0.6719 0.3942
vt 0.4814 0.5598
vt 0.5000 0.5768
vt 0.5625 0.4832
vt 0.6406 0.5583
vt 0.9854 0.0693
vt 0.9707 0.0498
vt 0.7188 0.4833
vt 0.6875 0.4832
vt 0.5312 0.4833
vt 0.7969 0.2218
vt 0.7969 0.3942
vt 1.0641 0.0690
vt 0.9707 0.1213
vt 0.7656 0.3942
vt 0.9219 0.2218
vt 0.6562 0.4833
vt 0.7656 0.5583
vt 0.0890 0.2781
vt 0.0988 0.2770
vt 0.8125 0.4832
vt 0.7812 0.4833
vt 0.7658 0.5588
vt 0.7656 0.5590
vt 0.8046 0.5157
vt 0.8125 0.5071
vt 0.6880 0.6137
vt 0.6875 0.6123
vt 0.6908 0.6122
vt 0.5892 0.6245
vt 0.6562 0.6116
vt 0.5336 0.6019
vt 0.5530 0.6121
vt 0.4688 0.4833
vt 0.4574 0.5377
vt 0.4688 0.5484
vt 0.3906 0.4579
vt 0.3028 0.3592
vt 0.3125 0.3692
vt 0.1904 0.2871
vt 0.2344 0.3076
vt 0.1094 0.2765
vt 0.4322 0.5086
vt 0.4462 0.5250
vt 0.0661 0.2834
vt 0.9219 0.3783
vt 0.8468 0.4664
vt 0.8594 0.4500
vt 0.6868 0.6141
vt 0.6604 0.6232
vt 0.6514 0.6249
vt 0.1269 0.0498
vt 1.0050 0.1213
vt 0.8933 0.4096
vt 0.1563 0.2780
vt 0.7812 0.5418
vt 0.5312 0.6007
vt 0.7414 0.5800
vt 0.6599 0.3007
vt 0.2889 0.3477
vt 0.7155 0.5981
vt 0.7188 0.5963
vt 0.6406 0.6252
vt 0.8418 0.4721
vt 0.2523 0.3207
vt 0.2756 0.3358
vt 0.9531 0.3479
vt 0.1514 0.2778
vt 0.6310 0.6254
vt 0.0688 0.3129
vt 0.3295 0.3854
vt 0.3438 0.4020
vt 0.9457 0.3532
vt 0.3556 0.4158
vt 0.8906 0.4129
vt 0.8328 0.4833
vt 0.2656 0.3280
vt 0.8170 0.5018
vt 0.0587 0.2847
vt 0.4219 0.4952
vt 0.4064 0.4757
vt 0.5279 0.5980
vt 0.8859 0.4187
vn 0.4546 0.0990 -0.8852
vn 0.3294 0.0842 -0.9404
vn 0.1202 0.3245 -0.9382
vn 0.7494 0.3880 -0.5365
vn 0.8834 0.2948 -0.3644
vn 0.8979 0.0841 -0.4320
vn 0.7591 0.3254 -0.5638
vn 0.8705 0.4808 -0.1053
vn 0.9551 0.2566 -0.1480
vn 0.8608 0.4771 -0.1773
vn 0.8777 -0.3202 0.3565
vn 0.8555 -0.4228 0.2988
vn 0.7363 -0.6406 0.2180
vn 0.9325 -0.3377 0.1278
vn -0.1790 -0.9714 0.1562
vn 0.1928 -0.9786 -0.0714
vn 0.1199 -0.9866 -0.1108
vn -0.7491 -0.6524 0.1150
vn -0.5678 -0.8232 0.0058
vn -0.2365 -0.9716 -0.0066
vn -0.4865 -0.8000 -0.3512
vn -0.8732 -0.4618 -0.1560
vn -0.1467 -0.9774 0.1521
vn -0.4154 -0.8501 0.3238
vn 0.1652 -0.9862 0.0079
vn -0.3851 -0.5247 0.7592
vn -0.4734 -0.6471 0.5976
vn -0.2444 -0.6439 0.7250
vn -0.1922 -0.4865 0.8523
vn -0.6432 -0.3353 -0.6884
vn -0.5688 -0.2776 -0.7742
vn -0.6515 -0.4755 -0.5912
vn -0.7229 -0.3889 -0.5711
vn -0.7219 -0.6313 -0.2835
vn -0.7849 -0.4558 -0.4197
vn -0.9210 -0.3000 -0.2485
vn -0.7239 -0.4051 -0.5585
vn 0.8539 -0.2998 -0.4254
vn 0.9107 -0.1134 -0.3971
vn 0.9109 -0.3363 -0.2389
vn 0.7903 -0.6115 -0.0389
vn 0.9396 -0.3363 -0.0643
vn 0.2802 -0.7801 0.5594
vn -0.0019 -0.9775 0.2109
vn 0.0875 -0.6461 0.7582
vn -0.5537 -0.6045 0.5727
vn -0.2059 -0.7837 0.5860
vn -0.6337 -0.5756 0.5169
vn -0.0000 -1.0000 -0.0000
vn -0.6852 -0.6437 0.3409
vn -0.7633 -0.4398 0.4732
vn -0.5423 -0.6041 0.5840
vn -0.8079 -0.4347 0.3980
vn 0.0859 -0.9792 -0.1838
vn -0.0182 -0.9696 0.2440
vn 0.0065 -0.9866 -0.1633
vn 0.3935 -0.4244 0.8155
vn 0.3396 -0.6440 0.6855
vn 0.3249 -0.8476 0.4196
vn 0.1488 -0.9776 0.1489
vn 0.5873 -0.7853 0.1960
vn -0.1061 -0.4704 0.8761
vn 0.1411 -0.4451 0.8843
vn -0.1108 -0.9864 -0.1213
vn 0.1574 -0.9717 0.1761
vn -0.1641 -0.9864 -0.0074
vn 0.5112 -0.8590 -0.0286
vn 0.2357 -0.9717 0.0132
vn -0.0761 -0.8531 0.5162
vn -0.0714 -0.9786 -0.1928
vn 0.5977 -0.6471 0.4734
vn -0.1838 -0.9792 -0.0859
vn 0.2467 -0.9691 0.0031
vn 0.5840 -0.6038 0.5425
vn 0.3685 -0.3202 0.8727
vn 0.0277 -0.6042 0.7964
vn 0.7742 -0.2776 -0.5688
vn 0.7650 -0.4945 -0.4125
vn 0.5904 -0.4774 -0.6508
vn 0.4752 -0.3363 -0.8131
vn 0.2782 -0.6556 -0.7020
vn 0.3030 -0.2998 -0.9046
vn -0.1907 -0.9792 0.0692
vn 0.2181 -0.9574 -0.1893
vn 0.5439 -0.4719 0.6939
vn 0.7251 -0.4451 0.5255
vn 0.0893 -0.8276 -0.5542
vn -0.0466 -0.4795 -0.8763
vn 0.2520 -0.4978 -0.8299
vn 0.7759 -0.2745 0.5680
vn 0.7661 -0.1708 0.6196
vn -0.1199 -0.9866 0.1108
vn 0.6935 -0.6551 -0.2997
vn -0.2389 -0.3363 -0.9109
vn -0.2995 -0.6556 -0.6932
vn -0.4254 -0.2998 -0.8539
vn 0.9691 -0.0831 0.2321
vn 0.0117 -0.9669 -0.2547
vn -0.1964 -0.9564 -0.2164
vn -0.3288 -0.8276 -0.4550
vn -0.4086 -0.4979 -0.7650
vn -0.9411 -0.3115 -0.1317
vn -0.9181 -0.2948 -0.2651
vn -0.0074 -0.9864 0.1641
vn 0.0153 -0.9600 -0.2797
vn -0.0822 -0.9794 0.1844
vn 0.1767 -0.9691 -0.1722
vn 0.4460 -0.8275 -0.3411
vn 0.5801 -0.2927 0.7602
vn 0.5032 -0.2233 0.8348
vn 0.6264 -0.1840 0.7575
vn 0.1108 -0.9864 0.1213
vn 0.5965 -0.6281 -0.4997
vn 0.6125 -0.3181 -0.7236
vn 0.9596 0.0383 0.2786
vn 0.9779 0.0348 0.2061
vn 0.9839 -0.0862 -0.1564
vn 0.7876 0.0787 -0.6111
vn 0.0714 -0.9786 0.1928
vn 0.3676 -0.1171 -0.9226
vn 0.5852 -0.0862 -0.8063
vn 0.9959 -0.0853 0.0288
vn 0.0682 -0.6286 -0.7747
vn -0.0786 -0.3181 -0.9448
vn 0.1856 -0.9792 0.0820
vn -0.1199 -0.9731 -0.1965
vn 0.1452 -0.2776 -0.9497
vn -0.4997 -0.6285 -0.5961
vn 0.7542 -0.1104 -0.6473
vn 0.1248 0.0787 -0.9891
vn -0.8158 -0.5214 0.2502
vn -0.7542 -0.4985 0.4274
vn -0.1565 -0.0832 -0.9842
vn 0.0854 -0.1140 -0.9898
vn 0.1197 0.1760 -0.9771
vn 0.2735 0.3287 -0.9040
vn -0.1040 0.0330 -0.9940
vn -0.1402 0.0321 -0.9896
vn 0.4890 0.4828 -0.7265
vn 0.5743 0.2685 -0.7734
vn 0.5308 0.0628 -0.8452
vn 0.8388 0.4935 -0.2300
vn 0.7355 0.2955 -0.6097
vn 0.9933 0.0370 -0.1092
vn 0.9921 0.0622 -0.1093
vn 0.9062 -0.1326 0.4016
vn 0.9180 -0.0200 0.3960
vn 0.9611 0.0334 0.2740
vn 0.6825 -0.1493 0.7155
vn 0.2580 -0.3364 0.9057
vn 0.2725 -0.3011 0.9138
vn -0.5979 -0.5423 0.5903
vn -0.1404 -0.4362 0.8888
vn -0.7163 -0.4344 0.5461
vn 0.7473 -0.0969 0.6574
vn 0.8371 -0.0789 0.5413
vn -0.8400 -0.5425 -0.0085
vn -0.7941 -0.4318 -0.4277
vn -0.3988 -0.2311 -0.8874
vn -0.5845 -0.1483 -0.7977
vn 0.5439 0.4757 -0.6913
vn 0.5770 0.4948 -0.6498
vn 0.8143 0.3873 -0.4324
vn -0.1630 -0.9857 0.0437
vn -0.5302 -0.1916 -0.8259
vn -0.4518 -0.6065 0.6542
vn -0.1145 0.0337 -0.9929
vn 0.9995 0.0330 0.0023
vn 0.2164 0.3291 -0.9192
vn -0.8248 -0.5646 -0.0291
vn 0.0582 -0.3787 0.9237
vn 0.5295 0.0338 -0.8477
vn 0.5440 0.0330 -0.8384
vn 0.8423 0.3256 -0.4296
vn -0.2661 -0.2239 -0.9376
vn -0.2047 -0.4401 0.8743
vn -0.1836 -0.3937 0.9007
vn -0.6936 -0.4369 -0.5728
vn -0.5377 -0.5512 0.6380
vn 0.8016 0.3296 -0.4989
vn 0.2141 -0.3027 0.9287
vn 0.1775 -0.3021 0.9366
vn -0.7292 -0.4399 -0.5242
vn 0.3418 -0.2496 0.9060
vn -0.4890 -0.1470 -0.8598
vn -0.2154 -0.1682 -0.9619
vn -0.3103 -0.4327 0.8465
vn -0.2229 0.0330 -0.9743
vn -0.8166 -0.5720 -0.0776
vn 0.6575 -0.1496 0.7385
vn 0.6740 -0.1495 0.7234
vn 0.9862 0.0379 0.1610
vn -0.5201 -0.1497 -0.8409
usemtl apple.001
s 1
f 1/1/1 2/2/2 3/3/3
f 4/4/4 5/5/5 6/6/6 7/7/7
f 8/8/8 9/9/9 10/10/10
f 11/11/11 12/12/12 13/13/13
f 11/11/11 13/13/13 14/14/14
f 15/15/15 16/16/16 17/17/17
f 18/18/18 19/19/19 20/20/20
f 21/21/21 19/19/19 22/22/22
f 23/23/23 24/24/24 17/17/17
f 19/19/19 25/25/25 20/20/20
f 25/25/25 16/16/16 20/20/20
f 26/26/26 27/27/27 28/28/28 29/29/29
f 30/30/30 31/31/31 32/32/32 33/33/33
f 34/34/34 21/21/21 35/35/35
f 36/36/36 37/37/37 35/35/35
f 38/38/38 39/39/39 40/40/40
f 41/41/41 42/42/42 14/14/14
f 43/43/43 44/44/44 45/45/45
f 46/46/46 47/47/47 48/48/48
f 16/16/16 49/49/49 17/17/17
f 27/27/27 47/47/47 23/23/23
f 24/24/24 50/50/50 15/15/15
f 50/50/50 20/20/20 15/15/15
f 51/51/51 52/52/52 53/53/53
f 54/54/54 55/55/55 23/23/23
f 54/54/54 23/23/23 17/17/17
f 55/55/55 54/54/54 56/56/56
f 57/57/57 45/45/45 58/58/58
f 49/49/49 56/56/56 54/54/54
f 59/59/59 60/60/60 61/61/61
f 49/49/49 54/54/54 17/17/17
f 27/27/27 55/55/55 28/28/28
f 62/62/62 43/43/43 63/63/63
f 64/64/64 59/59/59 65/65/65
f 66/66/66 67/67/67 68/68/68
f 69/69/69 28/28/28 55/55/55
f 65/65/65 70/70/70 64/64/64
f 70/70/70 44/44/44 56/56/56
f 12/12/12 71/71/71 13/13/13
f 72/72/72 68/68/68 60/60/60
f 64/64/64 49/49/49 72/72/72
f 73/73/73 67/67/67 66/66/66
f 70/70/70 65/65/65 44/44/44
f 70/70/70 49/49/49 64/64/64
f 74/74/74 75/75/75 58/58/58
f 62/62/62 76/76/76 69/69/69
f 58/58/58 44/44/44 65/65/65
f 77/77/77 78/78/78 79/79/79
f 68/68/68 72/72/72 66/66/66
f 43/43/43 45/45/45 63/63/63
f 80/80/80 81/81/81 82/82/82
f 83/83/83 84/84/84 73/73/73
f 85/85/85 74/74/74 59/59/59
f 13/13/13 41/41/41 14/14/14
f 85/85/85 61/61/61 86/86/86
f 61/61/61 60/60/60 71/71/71
f 87/87/87 88/88/88 89/89/89
f 86/86/86 90/90/90 85/85/85
f 71/71/71 68/68/68 13/13/13
f 12/12/12 91/91/91 86/86/86
f 84/84/84 83/83/83 92/92/92
f 93/93/93 42/42/42 41/41/41
f 94/94/94 95/95/95 96/96/96
f 73/73/73 93/93/93 41/41/41
f 61/61/61 71/71/71 86/86/86
f 14/14/14 97/97/97 11/11/11
f 49/49/49 83/83/83 66/66/66
f 95/95/95 98/98/98 99/99/99
f 100/100/100 32/32/32 101/101/101
f 102/102/102 103/103/103 22/104/22
f 104/105/104 87/87/87 105/106/105
f 92/92/92 49/107/49 106/108/106
f 107/109/107 108/110/108 92/92/92
f 85/85/85 90/90/90 109/111/109
f 110/112/110 75/75/75 109/111/109 111/113/111
f 83/83/83 49/49/49 92/92/92
f 112/114/112 100/100/100 99/99/99
f 78/78/78 93/93/93 84/84/84
f 39/39/39 6/6/6 5/5/5
f 105/106/105 106/108/106 104/105/104
f 113/115/113 80/80/80 114/116/114
f 113/115/113 79/79/79 108/110/108
f 115/117/115 97/97/97 116/118/116
f 40/40/40 39/39/39 117/119/117
f 83/83/83 73/73/73 66/66/66
f 107/109/107 81/81/81 113/115/113
f 6/6/6 77/77/77 118/120/118
f 49/107/49 104/105/104 106/108/106
f 99/99/99 119/121/119 112/114/112
f 106/122/106 105/106/105 107/109/107
f 98/98/98 87/87/87 104/105/104
f 80/80/80 120/123/120 121/124/121
f 42/42/42 117/119/117 122/125/122
f 87/87/87 123/126/123 88/88/88
f 89/89/89 81/81/81 105/106/105
f 98/98/98 95/95/95 123/126/123
f 124/127/124 95/95/95 94/94/94
f 92/92/92 106/122/106 107/109/107
f 49/107/49 119/121/119 104/105/104
f 117/119/117 42/42/42 40/40/40
f 114/116/114 79/79/79 113/115/113
f 125/128/125 126/129/126 112/114/112
f 101/101/101 95/95/95 99/99/99
f 124/127/124 127/130/127 88/88/88
f 112/114/112 49/107/49 125/128/125
f 126/129/126 100/100/100 112/114/112
f 87/87/87 89/89/89 105/106/105
f 104/105/104 119/121/119 98/98/98
f 119/121/119 99/99/99 98/98/98
f 128/131/128 32/32/32 100/100/100
f 126/129/126 34/34/34 128/131/128
f 114/116/114 121/124/121 129/132/129
f 2/2/2 127/130/127 130/133/130
f 126/129/126 21/21/21 34/34/34
f 131/134/131 18/18/18 50/50/50 132/135/132
f 121/124/121 114/116/114 80/80/80
f 69/69/69 44/44/44 43/43/43
f 125/128/125 49/49/49 25/25/25
f 94/94/94 133/136/133 124/127/124
f 101/101/101 31/31/31 96/96/96
f 127/130/127 134/137/134 130/133/130
f 89/89/89 127/130/127 82/82/82
f 88/88/88 123/126/123 124/127/124
f 135/138/135 136/139/136 130/133/130
f 137/140/137 133/136/133 138/141/138
f 100/100/100 101/101/101 99/99/99
f 139/142/139 140/143/140 141/144/141
f 38/38/38 78/78/78 77/77/77
f 10/10/10 9/9/9 5/5/5 142/145/142
f 77/77/77 129/132/129 118/120/118
f 49/107/49 112/114/112 119/121/119
f 143/146/143 121/124/121 140/143/140
f 118/120/118 129/132/129 143/146/143
f 42/42/42 122/125/122 14/14/14
f 114/116/114 77/77/77 79/79/79
f 97/97/97 14/14/14 122/125/122
f 117/119/117 5/5/5 9/9/9
f 144/147/144 117/119/117 9/9/9 145/148/145
f 92/92/92 108/110/108 84/84/84
f 127/130/127 89/89/89 88/88/88
f 11/11/11 97/97/97 146/149/146
f 147/150/147 146/149/146 148/151/148
f 31/31/31 101/101/101 32/32/32
f 11/11/11 146/149/146 12/12/12
f 86/86/86 71/71/71 12/12/12
f 111/113/111 109/111/109 149/152/149
f 74/74/74 85/85/85 109/111/109
f 75/75/75 57/57/57 58/58/58
f 63/63/63 45/45/45 57/57/57
f 150/153/150 63/63/63 151/154/151
f 152/155/152 27/27/27 26/26/26
f 153/156/153 29/29/29 28/28/28
f 72/72/72 49/49/49 66/66/66
f 64/64/64 72/72/72 60/60/60
f 59/59/59 58/58/58 65/65/65
f 154/157/154 132/135/132 50/50/50
f 56/56/56 49/49/49 70/70/70
f 155/158/155 91/91/91 156/159/156
f 157/160/157 18/18/18 131/134/131
f 33/33/33 32/32/32 128/131/128 158/161/158
f 124/127/124 133/136/133 134/137/134
f 159/162/159 96/96/96 160/163/160
f 2/2/2 120/123/120 82/82/82
f 156/159/156 91/91/91 146/149/146 147/150/147
f 6/6/6 39/39/39 38/38/38
f 90/90/90 86/86/86 91/91/91
f 16/16/16 15/15/15 20/20/20
f 25/25/25 49/49/49 16/16/16
f 56/56/56 69/69/69 55/55/55
f 161/164/161 140/143/140 139/142/139
f 162/165/162 163/166/163 143/146/143
f 108/110/108 78/78/78 84/84/84
f 40/40/40 93/93/93 38/38/38
f 81/81/81 107/109/107 105/106/105
f 93/93/93 73/73/73 84/84/84
f 68/68/68 67/67/67 13/13/13
f 125/128/125 25/167/25 164/168/164
f 17/17/17 24/24/24 15/15/15
f 164/168/164 126/129/126 125/128/125
f 82/82/82 120/123/120 80/80/80
f 35/35/35 21/21/21 22/22/22
f 25/167/25 19/19/19 164/168/164
f 108/110/108 79/79/79 78/78/78
f 21/21/21 164/168/164 19/19/19
f 23/23/23 47/47/47 24/24/24
f 30/30/30 165/169/165 31/31/31
f 166/170/166 24/24/24 47/47/47 46/46/46
f 24/24/24 52/52/52 50/50/50
f 50/50/50 18/18/18 20/20/20
f 154/157/154 50/50/50 52/52/52 51/51/51
f 59/59/59 64/64/64 60/60/60
f 27/27/27 23/23/23 55/55/55
f 62/62/62 69/69/69 43/43/43
f 69/69/69 76/76/76 28/28/28
f 73/73/73 41/41/41 67/67/67
f 74/74/74 109/111/109 75/75/75
f 58/58/58 45/45/45 44/44/44
f 13/13/13 67/67/67 41/41/41
f 85/85/85 59/59/59 61/61/61
f 71/71/71 60/60/60 68/68/68
f 12/12/12 146/149/146 91/91/91
f 93/93/93 40/40/40 42/42/42
f 107/109/107 113/115/113 108/110/108
f 78/78/78 38/38/38 93/93/93
f 113/115/113 81/81/81 80/80/80
f 148/151/148 146/149/146 97/97/97 115/117/115
f 6/6/6 38/38/38 77/77/77
f 98/98/98 123/126/123 87/87/87
f 89/89/89 82/82/82 81/81/81
f 124/127/124 123/126/123 95/95/95
f 101/101/101 96/96/96 95/95/95
f 124/127/124 134/137/134 127/130/127
f 126/129/126 128/131/128 100/100/100
f 2/2/2 82/82/82 127/130/127
f 69/69/69 56/56/56 44/44/44
f 167/171/167 134/137/134 133/136/133 137/140/137
f 143/146/143 129/132/129 121/124/121
f 114/116/114 129/132/129 77/77/77
f 117/119/117 39/39/39 5/5/5
f 168/172/168 122/125/122 117/119/117 144/147/144
f 59/59/59 74/74/74 58/58/58
f 164/168/164 21/21/21 126/129/126
f 2/2/2 130/133/130 136/139/136 169/173/169
f 22/104/22 170/174/170 102/102/102
f 47/47/47 27/27/27 152/155/152 48/48/48
f 2/2/2 169/173/169 3/3/3
f 63/63/63 150/153/150 171/175/171 62/62/62
f 121/124/121 172/176/172 141/144/141 140/143/140
f 121/124/121 120/123/120 173/177/173 172/176/172
f 118/120/118 143/146/143 163/166/163 174/178/174
f 96/96/96 159/162/159 175/179/175 94/94/94
f 9/9/9 8/8/8 145/148/145
f 28/28/28 176/180/176 153/156/153
f 62/62/62 171/175/171 177/181/177
f 35/35/35 37/37/37 178/182/178 34/34/34
f 52/52/52 24/24/24 166/170/166 179/183/179
f 5/5/5 4/4/4 142/145/142
f 6/6/6 180/184/180 7/7/7
f 6/6/6 118/120/118 174/178/174 180/184/180
f 35/35/35 22/22/22 103/185/103 36/36/36
f 57/57/57 181/186/181 151/154/151 63/63/63
f 57/57/57 182/187/182 181/186/181
f 130/133/130 134/137/134 167/171/167 135/138/135
f 128/131/128 183/188/183 158/161/158
f 128/131/128 34/34/34 178/182/178 183/188/183
f 75/75/75 184/189/184 182/187/182 57/57/57
f 75/75/75 110/112/110 184/189/184
f 31/31/31 165/169/165 185/190/185
f 94/94/94 175/179/175 186/191/186 133/136/133
f 62/62/62 177/181/177 187/192/187 76/76/76
f 28/28/28 76/76/76 187/192/187 176/180/176
f 133/136/133 188/193/188 138/141/138
f 133/136/133 186/191/186 188/193/188
f 52/52/52 179/183/179 53/53/53
f 18/18/18 157/160/157 189/194/189 19/19/19
f 22/104/22 19/19/19 189/194/189 170/174/170
f 91/91/91 155/158/155 190/195/190 90/90/90
f 90/90/90 190/195/190 191/196/191
f 97/97/97 192/197/192 116/118/116
f 97/97/97 122/125/122 168/172/168 192/197/192
f 31/31/31 185/190/185 193/198/193
f 31/31/31 193/198/193 160/163/160 96/96/96
f 140/143/140 161/164/161 162/165/162 143/146/143
f 120/123/120 2/2/2 1/1/1 173/177/173
f 90/90/90 191/196/191 149/152/149 109/111/109
